<svg width="711" height="233" viewBox="0 0 711 233" fill="none" xmlns="http://www.w3.org/2000/svg">
<path fill-rule="evenodd" clip-rule="evenodd" d="M577.046 0.148438V186.758C577.575 217.948 583.388 229.05 622.491 229.05V36.6246C621.963 6.49212 616.15 0.148438 577.046 0.148438ZM468.719 58.299C416.405 58.299 384.171 97.9469 384.171 146.053C384.171 187.287 407.951 232.75 468.719 232.75C524.204 232.75 540.057 197.331 546.398 177.243H517.334C510.465 177.243 505.709 179.886 501.482 185.701C501.435 185.748 501.385 185.798 501.332 185.853C501.244 185.943 501.147 186.043 501.041 186.154C498.235 189.062 488.727 198.917 470.305 198.917C431.612 198.917 430.191 169.188 429.654 157.94L429.652 157.899C429.64 157.641 429.628 157.392 429.616 157.155H549.04C552.21 108.52 526.846 58.299 468.719 58.299ZM429.616 128.079C429.616 124.908 432.258 92.6606 467.663 92.6606C490.913 92.6606 499.368 105.877 504.124 128.079H429.616ZM665.294 186.758V0.148438C703.869 0.148438 710.21 6.49212 710.738 36.6246V229.05C671.635 229.05 665.822 217.948 665.294 186.758ZM333.972 165.084C333.972 165.084 323.403 164.556 319.704 175.657C313.891 190.988 303.851 198.917 285.885 198.917C258.935 198.917 248.367 172.485 248.367 146.053C248.367 120.678 258.935 92.6606 286.942 92.6606C304.38 92.6606 313.891 100.59 317.59 110.634C319.704 116.449 322.875 121.207 332.915 121.207H365.149C362.507 78.3873 326.045 58.299 286.942 58.299C229.872 58.299 202.394 99.5329 202.394 147.639C202.394 201.56 239.912 232.75 285.885 232.75C326.574 232.75 359.336 212.662 365.677 165.084H333.972ZM50.7355 229.578H0.535156V0.677002C44.9229 0.677002 50.7355 11.7784 50.7355 45.0828V95.3036C50.7355 95.3036 101.464 41.3823 120.488 21.294C139.511 1.73428 154.835 0.677002 178.614 0.677002H202.922L113.618 91.0744L211.905 229.578H187.598C154.307 229.578 145.324 224.292 126.3 196.274C107.805 167.727 79.7989 126.493 79.7989 126.493L50.7355 155.569V229.578Z" fill="#652D86"/>
</svg>
