<svg width="24" height="25" viewBox="0 0 24 25" fill="none" xmlns="http://www.w3.org/2000/svg">
<path d="M21.6751 15.1652L20.1399 13.8527C20.2126 13.4074 20.2501 12.9527 20.2501 12.4981C20.2501 12.0434 20.2126 11.5887 20.1399 11.1434L21.6751 9.83087C21.7908 9.73175 21.8737 9.59972 21.9127 9.45235C21.9516 9.30498 21.9447 9.14925 21.893 9.00587L21.8719 8.94493C21.4493 7.76375 20.8165 6.66877 20.004 5.7129L19.9618 5.66368C19.8632 5.54779 19.7318 5.46448 19.585 5.42473C19.4381 5.38499 19.2827 5.39067 19.1391 5.44103L17.2336 6.11837C16.5305 5.54181 15.7454 5.08712 14.8969 4.76837L14.529 2.77618C14.5012 2.62628 14.4285 2.48838 14.3205 2.38079C14.2125 2.2732 14.0743 2.20102 13.9243 2.17384L13.861 2.16212C12.6399 1.94181 11.3555 1.94181 10.1344 2.16212L10.0711 2.17384C9.92114 2.20102 9.78295 2.2732 9.67494 2.38079C9.56694 2.48838 9.49422 2.62628 9.46646 2.77618L9.09615 4.77775C8.25448 5.09656 7.47068 5.55101 6.77584 6.12306L4.8563 5.44103C4.71279 5.39027 4.55722 5.38438 4.41028 5.42415C4.26333 5.46392 4.13197 5.54747 4.03365 5.66368L3.99146 5.7129C3.17993 6.66944 2.54718 7.76424 2.12349 8.94493L2.1024 9.00587C1.99693 9.29884 2.08365 9.62697 2.32037 9.83087L3.87427 11.1574C3.80162 11.5981 3.76646 12.0481 3.76646 12.4957C3.76646 12.9457 3.80162 13.3957 3.87427 13.834L2.32037 15.1606C2.20457 15.2597 2.1217 15.3917 2.08277 15.5391C2.04383 15.6864 2.05068 15.8422 2.1024 15.9856L2.12349 16.0465C2.54771 17.2277 3.17583 18.3176 3.99146 19.2785L4.03365 19.3277C4.13221 19.4436 4.26358 19.527 4.41043 19.5667C4.55729 19.6064 4.71274 19.6008 4.8563 19.5504L6.77584 18.8684C7.47427 19.4426 8.25474 19.8973 9.09615 20.2137L9.46646 22.2152C9.49422 22.3651 9.56694 22.5031 9.67494 22.6106C9.78295 22.7182 9.92114 22.7904 10.0711 22.8176L10.1344 22.8293C11.3667 23.0508 12.6287 23.0508 13.861 22.8293L13.9243 22.8176C14.0743 22.7904 14.2125 22.7182 14.3205 22.6106C14.4285 22.5031 14.5012 22.3651 14.529 22.2152L14.8969 20.2231C15.745 19.9051 16.5346 19.449 17.2336 18.8731L19.1391 19.5504C19.2826 19.6012 19.4382 19.607 19.5851 19.5673C19.7321 19.5275 19.8634 19.444 19.9618 19.3277L20.004 19.2785C20.8196 18.3152 21.4477 17.2277 21.8719 16.0465L21.893 15.9856C21.9985 15.6973 21.9118 15.3692 21.6751 15.1652ZM18.4758 11.4199C18.5344 11.7738 18.5649 12.1371 18.5649 12.5004C18.5649 12.8637 18.5344 13.227 18.4758 13.5809L18.3211 14.5207L20.0719 16.0184C19.8065 16.6298 19.4715 17.2087 19.0735 17.7434L16.8985 16.9723L16.1626 17.577C15.6024 18.0363 14.979 18.3973 14.304 18.6504L13.411 18.9856L12.9915 21.259C12.3295 21.334 11.6612 21.334 10.9993 21.259L10.5797 18.9809L9.6938 18.641C9.02584 18.3879 8.40474 18.027 7.84927 17.5699L7.11334 16.9629L4.92427 17.741C4.52584 17.2043 4.19302 16.6254 3.92583 16.016L5.69537 14.5043L5.54302 13.5668C5.48677 13.2176 5.4563 12.8567 5.4563 12.5004C5.4563 12.1418 5.48443 11.7832 5.54302 11.434L5.69537 10.4965L3.92583 8.98478C4.19068 8.37306 4.52584 7.7965 4.92427 7.25978L7.11334 8.0379L7.84927 7.43087C8.40474 6.97384 9.02584 6.6129 9.6938 6.35978L10.5821 6.02462L11.0016 3.7465C11.6602 3.6715 12.3329 3.6715 12.9938 3.7465L13.4133 6.01993L14.3063 6.35509C14.979 6.60822 15.6047 6.96915 16.1649 7.42853L16.9008 8.03322L19.0758 7.26212C19.4743 7.79884 19.8071 8.37775 20.0743 8.98712L18.3235 10.4848L18.4758 11.4199ZM12.0001 8.14103C9.72193 8.14103 7.87505 9.9879 7.87505 12.266C7.87505 14.5442 9.72193 16.391 12.0001 16.391C14.2782 16.391 16.1251 14.5442 16.1251 12.266C16.1251 9.9879 14.2782 8.14103 12.0001 8.14103ZM13.8563 14.1223C13.6128 14.3664 13.3235 14.5601 13.0049 14.692C12.6864 14.8239 12.3449 14.8916 12.0001 14.891C11.2993 14.891 10.6407 14.6168 10.1438 14.1223C9.89964 13.8788 9.70602 13.5895 9.57409 13.2709C9.44216 12.9523 9.37452 12.6108 9.37505 12.266C9.37505 11.5652 9.64927 10.9067 10.1438 10.4098C10.6407 9.9129 11.2993 9.64103 12.0001 9.64103C12.7008 9.64103 13.3594 9.9129 13.8563 10.4098C14.1005 10.6532 14.2941 10.9426 14.426 11.2611C14.5579 11.5797 14.6256 11.9212 14.6251 12.266C14.6251 12.9668 14.3508 13.6254 13.8563 14.1223Z" fill="#652D86"/>
</svg>
